inDegrees=no
num_controls=7
num_derivatives=13
num_iterations=117
num_multipliers=7
num_parameters=0
num_slacks=7
num_states=26
objective=0.476003
objective_accelerations=0.046170
objective_balance=0.003652
objective_effort=0.041874
objective_height=0.378786
objective_ligament=0.005521
solver_duration=1637.972138
status=Solve_Succeeded
success=true
DataType=double
version=3
OpenSimVersion=4.5
endheader
time	/jointset/ground_pelvis/pelvis_tilt/value	/jointset/ground_pelvis/pelvis_tx/value	/jointset/ground_pelvis/pelvis_ty/value	/jointset/hip_l/hip_flexion_l/value	/jointset/hip_l/hip_adduction_l/value	/jointset/hip_l/hip_rotation_l/value	/jointset/back/lumbar_extension/value	/jointset/patellofemoral_l/patellar_flexion_l/value	/jointset/knee_l/knee_flexion_l/value	/jointset/knee_l/knee_adduction_l/value	/jointset/knee_l/knee_rotation_l/value	/jointset/ankle_l/ankle_angle_l/value	/jointset/subtalar_l/subtalar_angle_l/value	/jointset/ground_pelvis/pelvis_tilt/speed	/jointset/ground_pelvis/pelvis_tx/speed	/jointset/ground_pelvis/pelvis_ty/speed	/jointset/hip_l/hip_flexion_l/speed	/jointset/hip_l/hip_adduction_l/speed	/jointset/hip_l/hip_rotation_l/speed	/jointset/back/lumbar_extension/speed	/jointset/patellofemoral_l/patellar_flexion_l/speed	/jointset/knee_l/knee_flexion_l/speed	/jointset/knee_l/knee_adduction_l/speed	/jointset/knee_l/knee_rotation_l/speed	/jointset/ankle_l/ankle_angle_l/speed	/jointset/subtalar_l/subtalar_angle_l/speed	/forceset/tau_hip_flexion_l	/forceset/tau_hip_adduction_l	/forceset/tau_hip_rotation_l	/forceset/tau_knee_flexion_l	/forceset/tau_ankle_angle_l	/forceset/tau_subtalar_angle_l	/forceset/tau_lumbar_extension	lambda_cid13_p0	lambda_cid13_p1	lambda_cid13_p2	lambda_cid13_p3	lambda_cid13_p4	lambda_cid13_p5	lambda_cid14_p0	/jointset/ground_pelvis/pelvis_tilt/accel	/jointset/ground_pelvis/pelvis_tx/accel	/jointset/ground_pelvis/pelvis_ty/accel	/jointset/hip_l/hip_flexion_l/accel	/jointset/hip_l/hip_adduction_l/accel	/jointset/hip_l/hip_rotation_l/accel	/jointset/back/lumbar_extension/accel	/jointset/patellofemoral_l/patellar_flexion_l/accel	/jointset/knee_l/knee_flexion_l/accel	/jointset/knee_l/knee_adduction_l/accel	/jointset/knee_l/knee_rotation_l/accel	/jointset/ankle_l/ankle_angle_l/accel	/jointset/subtalar_l/subtalar_angle_l/accel	gamma_cid13_p0	gamma_cid13_p1	gamma_cid13_p2	gamma_cid13_p3	gamma_cid13_p4	gamma_cid13_p5	gamma_cid14_p0
0.5	-0.1013190399882283	-0.04455192557931268	0.8008488679694038	0.9571235751553245	-0.3289630298684487	-0.07399589188694097	-0.7943563223442524	0.9425207188930294	0.9425207188929583	-0.09826148067814618	-0.174493197157145	0.152571757648208	0.01538541567184009	-0.1417072075140053	-0.1588263556851392	-0.4383778561493568	1.662976576136291	-0.02478206079790689	0.5691226927597789	-0.8310560831457044	1.835875622816578	1.835875622816185	0.1664950229025395	0.0001915646081996047	0.4402537769014683	0.1243637503721796	-0.2766129971806143	0.02454563569037002	-0.005396968668875357	-0.2504199502818955	0.08852881607450502	0.04194790169292004	0.3310710840693776	-15.69143599481257	-16.81312491141436	3.759745799968274	-9.87720367280731	-700.8488157016278	-70.95783880405536	-8.880929061827104	0.3172996317623427	0.6966605299634417	-0.2136515479470559	-1.533073380877298	0.3369267720725853	-0.544146524715575	1.935441575751295	-1.43650525797658	-1.436505257976582	-0.1940305864137343	-0.005291957951736693	-0.2943488133168945	0.3455112934155709	-2.798678562910579e-07	-1.367598583425928e-07	1.731051681426737e-06	1.689568920543719e-07	-3.11791030699984e-07	-4.832429091146554e-08	-2.397254001648041e-07
0.51	-0.1027200314034948	-0.04610534483821833	0.7964553745931354	0.9736742278909054	-0.3291949139889972	-0.06833078290430537	-0.8025693422973619	0.9608048247847287	0.9608048247846577	-0.09660907673029508	-0.1744914271395761	0.1569584825157735	0.01664492384382022	-0.1384701121821079	-0.1518577007972378	-0.4402218755532057	1.646930390884928	-0.02160439858146285	0.5638343716174772	-0.8114689858842538	1.820688440639165	1.82068844063895	0.1639810157250124	0.0001606008823082169	0.4370185380257474	0.1275073417405944	-0.2828636717319039	0.02476355364867268	-0.005522363684629984	-0.2542780195100449	0.08762607125859447	0.04194274372627969	0.3373217577522161	-16.2528035902749	-16.63679403444296	3.645051932568319	-9.658867016106635	-705.5232054001543	-70.77394622026796	-8.129192429537474	0.3300332636241219	0.6969710171231974	-0.1549964087730924	-1.673962563347651	0.3065029752882902	-0.5311073735868155	1.982182040158289	-1.598344598543491	-1.598344598516903	-0.2807924366644518	-0.001934159763266028	-0.3490061678464078	0.2940195811199925	-2.719255630716791e-07	-1.381677658013777e-07	1.698689415289253e-06	1.647867489201432e-07	-3.001294449282285e-07	-1.614629844011536e-08	-2.369472606901941e-07
0.52	-0.1040880281094999	-0.04758907693846105	0.7920463971683945	0.990057704480757	-0.3293953580816086	-0.06272054362601355	-0.8105841236300937	0.9789293548744711	0.9789293548744	-0.09498195418487504	-0.1744899538752324	0.1613106760459525	0.01793491523399762	-0.1351082656613781	-0.1448889239525513	-0.4414746658438288	1.629541346990292	-0.01849405521069981	0.5581487518912029	-0.7914083590701475	1.803960462424956	1.803960462424917	0.1614387424177958	0.0001322139621995679	0.4333475094241572	0.1304603940116314	-0.2891143462831841	0.02498147160697608	-0.005647758700435451	-0.2581360887381927	0.08672332644268302	0.04193758575964066	0.3435724314350628	-16.81577412735713	-16.46122795278683	3.531675734411228	-9.489671070503784	-710.2531885262998	-70.64665550492589	-7.389503709083698	0.342249869528858	0.6966849213204354	-0.09540572530186384	-1.801645109532017	0.3234630029363762	-0.6236062415100707	2.030147486282411	-1.744664465336027	-1.744664465336041	-0.1996838123516272	-0.0047765967951917	-0.3815067584907493	0.3074034739399873	-2.672899363134815e-07	-1.72602796302665e-07	1.658899376876012e-06	1.567375106897751e-07	-2.922605177987493e-07	5.32384762796013e-09	-2.375305269865569e-07
0.53	-0.1054218058935903	-0.04900317457669463	0.787627874777136	1.00626065995435	-0.3295650834489091	-0.05716921348561579	-0.8183960666542528	0.9968790219505294	0.9968790219505463	-0.09338036743579077	-0.1744889165843598	0.1656240425638043	0.01925343016710195	-0.1316286028795797	-0.1379357029810187	-0.4421285197638226	1.610832544480107	-0.01546432580898515	0.5520583646552591	-0.7709137179807202	1.785725860195495	1.785725860195662	0.1588703945117461	7.502409185768557e-05	0.4292596309380148	0.1332086896332471	-0.2951584758366386	0.02511322404882151	-0.005722998485953995	-0.2620911677688625	0.08579772733484098	0.04177517121244687	0.3496085965952512	-17.3925217410057	-16.20909577229232	3.39940085638502	-9.221781528640648	-714.929909305239	-70.41849364778477	-6.685372177421362	0.3536033808011657	0.6939062939386145	-0.03523895421539163	-1.93811078942768	0.290511957746543	-0.6108123249306413	2.069101587434298	-1.899874423055877	-1.899874423025017	-0.2866573075003921	-0.005897206024363133	-0.4323522491412066	0.2532954729345686	-2.565479855536569e-07	-1.609520812306973e-07	1.618737092551665e-06	1.530293868471046e-07	-2.785256368692554e-07	3.915194132603558e-08	-2.319930727488955e-07
0.54	-0.106720231270205	-0.05034788688343909	0.7832058411009043	1.022270004809308	-0.3297049547124	-0.05168059868963805	-0.8260010674340854	1.014638939740032	1.014638939740139	-0.09180471357132372	-0.1744883925969624	0.1698945455257016	0.02059837862975487	-0.1280377841659426	-0.131011857654731	-0.4421769228385095	1.590819223263284	-0.01252323444896846	0.5456056830075519	-0.7500199102048346	1.766010605113843	1.766010605114216	0.1562521654949469	2.955326668888079e-05	0.4247747982332627	0.1357470999213509	-0.3012026053900885	0.02524497649066515	-0.005798238271487371	-0.2660462467995325	0.08487212822699748	0.04161275666525067	0.355644761755444	-17.97053690527931	-15.96020799914348	3.271604061068143	-9.007019396564051	-719.6525465709096	-70.24929719047813	-6.018935444314329	0.3644810558966309	0.6908097922714288	0.02568444375951507	-2.06254885085971	0.3057353945967794	-0.6960651238627564	2.109980823574066	-2.040795035774275	-2.040795035774284	-0.2096600345014932	-0.002432787760578902	-0.4608976022127221	0.265426407237593	-2.390501018558619e-07	-9.831288169470222e-08	1.578162961687373e-06	1.541241980716741e-07	-2.583007645014474e-07	8.66526579338984e-08	-2.196837574948668e-07
0.55	-0.1079822400894666	-0.0516235675461627	0.7787863544363167	1.038072868458026	-0.3298157879865059	-0.04625826962879567	-0.8333952329205625	1.032194475269471	1.032194475269616	-0.09025534759825414	-0.1744881994626025	0.1741183134631008	0.02196775716758522	-0.1243470462803359	-0.1241349027243326	-0.4416180678188605	1.569543761769642	-0.009660143620297601	0.5387966923258244	-0.7287596263304063	1.744860032988884	1.744860032988864	0.1536162834010901	3.747488529777609e-06	0.4199177936546443	0.1380912153758355	-0.3070421397598644	0.02522958912163257	-0.005821180311987957	-0.2700011061201996	0.08376794648398821	0.04138880340336559	0.36144253535809	-18.60590264327181	-15.67356273073024	3.136655950641579	-8.654656795892116	-724.2633177511274	-70.05745719953947	-5.390838793162888	0.3738887358009377	0.6845751125233099	0.08628791628316626	-2.191535376587078	0.2738676485532173	-0.6830257647264925	2.142086283421413	-2.187615874699819	-2.187615874758763	-0.2912671571707001	-0.003141691849717006	-0.5072445408390825	0.2131227236194172	-2.199982844082187e-07	-3.410393519167914e-08	1.528355424636288e-06	1.54439571957812e-07	-2.371821713068042e-07	1.316003903815774e-07	-2.05792537961749e-07
0.5600000000000001	-0.1092068378136918	-0.05283079130576249	0.7743755166989688	1.053656679376214	-0.3298985360080142	-0.04090597241965176	-0.8405751887454866	1.049531419562892	1.049531419563071	-0.0887324834181932	-0.1744883618298237	0.1782916828236833	0.02335942058177353	-0.1205555651583954	-0.1173204770299671	-0.4404471373905902	1.547008677157175	-0.006906183929587054	0.5315993126681474	-0.7071779778942082	1.722292357910199	1.722292357909786	0.1509518068935167	-4.154704987467096e-05	0.4146950828699181	0.1402040751929413	-0.3128816741296392	0.02521420175259858	-0.005844122352492863	-0.2739559654408671	0.08266376474097814	0.04116485014147862	0.3672403089607369	-19.24344821319544	-15.38982701467797	3.00593247950829	-8.350690803118342	-728.9298519001113	-69.92139348406705	-4.80140124337816	0.3846297031633846	0.6783039450648483	0.1480995254837828	-2.314473474624722	0.2839091670047139	-0.7737429190526377	2.174253735928022	-2.324215626519376	-2.324215626519374	-0.2153789172447989	-0.006330539809649561	-0.5340388434342925	0.2191752797618225	-1.990817464607577e-07	3.198870767177756e-08	1.467467800161052e-06	1.53819621037832e-07	-2.149911131199586e-07	1.73484541837036e-07	-1.900030332937244e-07
0.5700000000000001	-0.1103930780269028	-0.0539702297981056	0.7699794417317122	1.069009027655168	-0.3299541812669207	-0.03562747994797006	-0.8475378169806742	1.06663578609956	1.066635786099443	-0.08723625142242415	-0.1744889095576176	0.1824111216348149	0.02477120733629969	-0.1166781769034101	-0.1105819879162079	-0.4386654579321603	1.523259209505207	-0.004242002412437079	0.5240406486065636	-0.6853074395937538	1.698356313396198	1.698356313396125	0.1482871699508428	-7.13374433396641e-05	0.4091389715573057	0.1421141101267101	-0.3184261220166343	0.02517265552408901	-0.005813398313107461	-0.277972188578649	0.08157460438576408	0.04076279668207124	0.3727302168144201	-19.8761772836914	-15.02142217953083	2.852384355315821	-7.962938853785906	-733.4247658568596	-69.6564166056655	-4.251002676378491	0.3914206317927569	0.6694371166678649	0.2085213875845374	-2.435473224714468	0.2545887647341998	-0.755869473158109	2.199488309553486	-2.461958053625037	-2.461958053573927	-0.2931081436337878	-0.001514839396603082	-0.5744404056900777	0.1708630460917409	-1.782312888128821e-07	8.986436864996806e-08	1.399882911703906e-06	1.512688646246964e-07	-1.927487793372272e-07	2.101946409287007e-07	-1.743455265758744e-07
